<mxfile host="app.diagrams.net" modified="2023-08-10T13:13:01.476Z" agent="Mozilla/5.0 (Windows NT 10.0; Win64; x64) AppleWebKit/537.36 (KHTML, like Gecko) Chrome/115.0.0.0 Safari/537.36" etag="3EgM4NggwJqoZBrLx7pt" version="21.6.7" type="github">
  <diagram id="C5RBs43oDa-KdzZeNtuy" name="Page-1">
    <mxGraphModel dx="1886" dy="824" grid="1" gridSize="10" guides="1" tooltips="1" connect="1" arrows="1" fold="1" page="1" pageScale="1" pageWidth="1200" pageHeight="1920" math="0" shadow="0">
      <root>
        <mxCell id="WIyWlLk6GJQsqaUBKTNV-0" />
        <mxCell id="WIyWlLk6GJQsqaUBKTNV-1" parent="WIyWlLk6GJQsqaUBKTNV-0" />
        <mxCell id="WIyWlLk6GJQsqaUBKTNV-2" value="" style="rounded=0;html=1;jettySize=auto;orthogonalLoop=1;fontSize=11;endArrow=block;endFill=0;endSize=8;strokeWidth=1;shadow=0;labelBackgroundColor=none;edgeStyle=orthogonalEdgeStyle;" parent="WIyWlLk6GJQsqaUBKTNV-1" source="WIyWlLk6GJQsqaUBKTNV-3" target="WIyWlLk6GJQsqaUBKTNV-6" edge="1">
          <mxGeometry relative="1" as="geometry" />
        </mxCell>
        <mxCell id="WIyWlLk6GJQsqaUBKTNV-3" value="회원가입 창 &lt;br&gt;(약관 동의는 그대로)" style="rounded=1;whiteSpace=wrap;html=1;fontSize=12;glass=0;strokeWidth=1;shadow=0;" parent="WIyWlLk6GJQsqaUBKTNV-1" vertex="1">
          <mxGeometry x="533" y="20" width="120" height="40" as="geometry" />
        </mxCell>
        <mxCell id="WIyWlLk6GJQsqaUBKTNV-5" value="YES (기존 회원)" style="edgeStyle=orthogonalEdgeStyle;rounded=0;html=1;jettySize=auto;orthogonalLoop=1;fontSize=11;endArrow=block;endFill=0;endSize=8;strokeWidth=1;shadow=0;labelBackgroundColor=none;" parent="WIyWlLk6GJQsqaUBKTNV-1" source="WIyWlLk6GJQsqaUBKTNV-6" target="WIyWlLk6GJQsqaUBKTNV-7" edge="1">
          <mxGeometry y="10" relative="1" as="geometry">
            <mxPoint as="offset" />
          </mxGeometry>
        </mxCell>
        <mxCell id="xgMs_YY9skJA7nOw364J-11" value="" style="edgeStyle=orthogonalEdgeStyle;rounded=0;orthogonalLoop=1;jettySize=auto;html=1;" edge="1" parent="WIyWlLk6GJQsqaUBKTNV-1" source="xgMs_YY9skJA7nOw364J-33">
          <mxGeometry relative="1" as="geometry">
            <mxPoint x="339" y="175" as="targetPoint" />
            <Array as="points">
              <mxPoint x="339" y="135" />
            </Array>
          </mxGeometry>
        </mxCell>
        <mxCell id="WIyWlLk6GJQsqaUBKTNV-6" value="회원 유무" style="rhombus;whiteSpace=wrap;html=1;shadow=0;fontFamily=Helvetica;fontSize=12;align=center;strokeWidth=1;spacing=6;spacingTop=-4;" parent="WIyWlLk6GJQsqaUBKTNV-1" vertex="1">
          <mxGeometry x="542.5" y="95" width="101" height="80" as="geometry" />
        </mxCell>
        <mxCell id="xgMs_YY9skJA7nOw364J-3" value="" style="edgeStyle=orthogonalEdgeStyle;rounded=0;orthogonalLoop=1;jettySize=auto;html=1;" edge="1" parent="WIyWlLk6GJQsqaUBKTNV-1" source="WIyWlLk6GJQsqaUBKTNV-7" target="xgMs_YY9skJA7nOw364J-2">
          <mxGeometry relative="1" as="geometry" />
        </mxCell>
        <mxCell id="WIyWlLk6GJQsqaUBKTNV-7" value="로그인 폼 &lt;br&gt;(교육자, 교육생 동일)" style="rounded=1;whiteSpace=wrap;html=1;fontSize=12;glass=0;strokeWidth=1;shadow=0;" parent="WIyWlLk6GJQsqaUBKTNV-1" vertex="1">
          <mxGeometry x="759" y="115" width="120" height="40" as="geometry" />
        </mxCell>
        <mxCell id="xgMs_YY9skJA7nOw364J-5" value="" style="edgeStyle=orthogonalEdgeStyle;rounded=0;orthogonalLoop=1;jettySize=auto;html=1;entryX=0.5;entryY=0;entryDx=0;entryDy=0;" edge="1" parent="WIyWlLk6GJQsqaUBKTNV-1" source="xgMs_YY9skJA7nOw364J-2" target="xgMs_YY9skJA7nOw364J-6">
          <mxGeometry relative="1" as="geometry">
            <mxPoint x="819" y="340" as="targetPoint" />
            <Array as="points" />
          </mxGeometry>
        </mxCell>
        <mxCell id="xgMs_YY9skJA7nOw364J-2" value="ID/PW 입력" style="shape=parallelogram;perimeter=parallelogramPerimeter;whiteSpace=wrap;html=1;fixedSize=1;rounded=1;glass=0;strokeWidth=1;shadow=0;" vertex="1" parent="WIyWlLk6GJQsqaUBKTNV-1">
          <mxGeometry x="759" y="220" width="120" height="60" as="geometry" />
        </mxCell>
        <mxCell id="xgMs_YY9skJA7nOw364J-8" value="" style="edgeStyle=orthogonalEdgeStyle;rounded=0;orthogonalLoop=1;jettySize=auto;html=1;entryX=1;entryY=0.25;entryDx=0;entryDy=0;" edge="1" parent="WIyWlLk6GJQsqaUBKTNV-1" source="xgMs_YY9skJA7nOw364J-6" target="xgMs_YY9skJA7nOw364J-2">
          <mxGeometry relative="1" as="geometry">
            <mxPoint x="949" y="240" as="targetPoint" />
            <Array as="points">
              <mxPoint x="909" y="390" />
              <mxPoint x="909" y="236" />
            </Array>
          </mxGeometry>
        </mxCell>
        <mxCell id="xgMs_YY9skJA7nOw364J-31" value="" style="edgeStyle=orthogonalEdgeStyle;rounded=0;orthogonalLoop=1;jettySize=auto;html=1;" edge="1" parent="WIyWlLk6GJQsqaUBKTNV-1" source="xgMs_YY9skJA7nOw364J-6" target="xgMs_YY9skJA7nOw364J-30">
          <mxGeometry relative="1" as="geometry" />
        </mxCell>
        <mxCell id="xgMs_YY9skJA7nOw364J-6" value="ID/PW 체크" style="rhombus;whiteSpace=wrap;html=1;" vertex="1" parent="WIyWlLk6GJQsqaUBKTNV-1">
          <mxGeometry x="769" y="350" width="100" height="80" as="geometry" />
        </mxCell>
        <mxCell id="xgMs_YY9skJA7nOw364J-9" value="NO (로그인 실패)" style="text;html=1;align=center;verticalAlign=middle;resizable=0;points=[];autosize=1;strokeColor=none;fillColor=none;" vertex="1" parent="WIyWlLk6GJQsqaUBKTNV-1">
          <mxGeometry x="850" y="298" width="120" height="30" as="geometry" />
        </mxCell>
        <mxCell id="xgMs_YY9skJA7nOw364J-15" value="" style="edgeStyle=orthogonalEdgeStyle;rounded=0;orthogonalLoop=1;jettySize=auto;html=1;" edge="1" parent="WIyWlLk6GJQsqaUBKTNV-1" source="xgMs_YY9skJA7nOw364J-13">
          <mxGeometry relative="1" as="geometry">
            <mxPoint x="339" y="290" as="targetPoint" />
          </mxGeometry>
        </mxCell>
        <mxCell id="xgMs_YY9skJA7nOw364J-13" value="회원가입 폼" style="whiteSpace=wrap;html=1;" vertex="1" parent="WIyWlLk6GJQsqaUBKTNV-1">
          <mxGeometry x="279" y="175" width="120" height="65" as="geometry" />
        </mxCell>
        <mxCell id="xgMs_YY9skJA7nOw364J-19" value="" style="edgeStyle=orthogonalEdgeStyle;rounded=0;orthogonalLoop=1;jettySize=auto;html=1;" edge="1" parent="WIyWlLk6GJQsqaUBKTNV-1" source="xgMs_YY9skJA7nOw364J-20">
          <mxGeometry relative="1" as="geometry">
            <mxPoint x="532.5" y="40" as="targetPoint" />
            <Array as="points">
              <mxPoint x="459" y="40" />
            </Array>
          </mxGeometry>
        </mxCell>
        <mxCell id="xgMs_YY9skJA7nOw364J-23" value="" style="edgeStyle=orthogonalEdgeStyle;rounded=0;orthogonalLoop=1;jettySize=auto;html=1;" edge="1" parent="WIyWlLk6GJQsqaUBKTNV-1">
          <mxGeometry relative="1" as="geometry">
            <mxPoint x="339" y="410" as="sourcePoint" />
            <mxPoint x="339" y="510" as="targetPoint" />
          </mxGeometry>
        </mxCell>
        <mxCell id="xgMs_YY9skJA7nOw364J-14" value="필수약관&amp;nbsp;&lt;br&gt;동의 체크&lt;br&gt;(교육자, 교육생 동일)" style="rhombus;whiteSpace=wrap;html=1;" vertex="1" parent="WIyWlLk6GJQsqaUBKTNV-1">
          <mxGeometry x="259" y="290" width="160" height="120" as="geometry" />
        </mxCell>
        <mxCell id="xgMs_YY9skJA7nOw364J-21" value="" style="edgeStyle=orthogonalEdgeStyle;rounded=0;orthogonalLoop=1;jettySize=auto;html=1;" edge="1" parent="WIyWlLk6GJQsqaUBKTNV-1" target="xgMs_YY9skJA7nOw364J-20">
          <mxGeometry relative="1" as="geometry">
            <mxPoint x="419" y="350" as="sourcePoint" />
            <mxPoint x="532.5" y="40" as="targetPoint" />
            <Array as="points">
              <mxPoint x="459" y="350" />
            </Array>
          </mxGeometry>
        </mxCell>
        <mxCell id="xgMs_YY9skJA7nOw364J-20" value="NO&amp;nbsp;&lt;br&gt;(초기 회원가입 화면으로 이동)" style="text;html=1;align=center;verticalAlign=middle;resizable=0;points=[];autosize=1;strokeColor=none;fillColor=none;" vertex="1" parent="WIyWlLk6GJQsqaUBKTNV-1">
          <mxGeometry x="369" y="240" width="190" height="40" as="geometry" />
        </mxCell>
        <mxCell id="xgMs_YY9skJA7nOw364J-24" value="YES (정보 입력창으로 이동)" style="text;html=1;align=center;verticalAlign=middle;resizable=0;points=[];autosize=1;strokeColor=none;fillColor=none;" vertex="1" parent="WIyWlLk6GJQsqaUBKTNV-1">
          <mxGeometry x="259" y="448" width="170" height="30" as="geometry" />
        </mxCell>
        <mxCell id="xgMs_YY9skJA7nOw364J-46" value="" style="edgeStyle=orthogonalEdgeStyle;rounded=0;orthogonalLoop=1;jettySize=auto;html=1;" edge="1" parent="WIyWlLk6GJQsqaUBKTNV-1" source="xgMs_YY9skJA7nOw364J-30" target="xgMs_YY9skJA7nOw364J-45">
          <mxGeometry relative="1" as="geometry">
            <Array as="points">
              <mxPoint x="820" y="830" />
            </Array>
          </mxGeometry>
        </mxCell>
        <mxCell id="xgMs_YY9skJA7nOw364J-30" value="로그인 처리" style="whiteSpace=wrap;html=1;" vertex="1" parent="WIyWlLk6GJQsqaUBKTNV-1">
          <mxGeometry x="774" y="610" width="90" height="40" as="geometry" />
        </mxCell>
        <mxCell id="xgMs_YY9skJA7nOw364J-32" value="YES (로그인 성공)" style="text;html=1;align=center;verticalAlign=middle;resizable=0;points=[];autosize=1;strokeColor=none;fillColor=none;" vertex="1" parent="WIyWlLk6GJQsqaUBKTNV-1">
          <mxGeometry x="759" y="490" width="120" height="30" as="geometry" />
        </mxCell>
        <mxCell id="xgMs_YY9skJA7nOw364J-34" value="" style="edgeStyle=orthogonalEdgeStyle;rounded=0;orthogonalLoop=1;jettySize=auto;html=1;" edge="1" parent="WIyWlLk6GJQsqaUBKTNV-1" source="WIyWlLk6GJQsqaUBKTNV-6" target="xgMs_YY9skJA7nOw364J-33">
          <mxGeometry relative="1" as="geometry">
            <mxPoint x="549" y="130" as="sourcePoint" />
            <mxPoint x="339" y="175" as="targetPoint" />
            <Array as="points" />
          </mxGeometry>
        </mxCell>
        <mxCell id="xgMs_YY9skJA7nOw364J-33" value="NO (회원 가입 폼으로 이동)" style="text;html=1;align=center;verticalAlign=middle;resizable=0;points=[];autosize=1;strokeColor=none;fillColor=none;" vertex="1" parent="WIyWlLk6GJQsqaUBKTNV-1">
          <mxGeometry x="350" y="120" width="170" height="30" as="geometry" />
        </mxCell>
        <mxCell id="xgMs_YY9skJA7nOw364J-42" value="" style="edgeStyle=orthogonalEdgeStyle;rounded=0;orthogonalLoop=1;jettySize=auto;html=1;" edge="1" parent="WIyWlLk6GJQsqaUBKTNV-1" source="xgMs_YY9skJA7nOw364J-39" target="xgMs_YY9skJA7nOw364J-41">
          <mxGeometry relative="1" as="geometry" />
        </mxCell>
        <mxCell id="xgMs_YY9skJA7nOw364J-54" value="" style="edgeStyle=orthogonalEdgeStyle;rounded=0;orthogonalLoop=1;jettySize=auto;html=1;" edge="1" parent="WIyWlLk6GJQsqaUBKTNV-1" source="xgMs_YY9skJA7nOw364J-39" target="xgMs_YY9skJA7nOw364J-53">
          <mxGeometry relative="1" as="geometry" />
        </mxCell>
        <mxCell id="xgMs_YY9skJA7nOw364J-39" value="회원 정보 입력" style="shape=parallelogram;perimeter=parallelogramPerimeter;whiteSpace=wrap;html=1;fixedSize=1;" vertex="1" parent="WIyWlLk6GJQsqaUBKTNV-1">
          <mxGeometry x="279" y="510" width="120" height="60" as="geometry" />
        </mxCell>
        <mxCell id="xgMs_YY9skJA7nOw364J-41" value="이름, 생년월일, 전화번호&lt;br&gt;&lt;br&gt;교육자, 교육생 선택&lt;br&gt;&lt;br&gt;아이디&lt;br&gt;&lt;br&gt;비밀번호&lt;br&gt;&lt;br&gt;비밀번호 재확인" style="whiteSpace=wrap;html=1;" vertex="1" parent="WIyWlLk6GJQsqaUBKTNV-1">
          <mxGeometry x="20" y="455" width="150" height="170" as="geometry" />
        </mxCell>
        <mxCell id="xgMs_YY9skJA7nOw364J-48" value="" style="edgeStyle=orthogonalEdgeStyle;rounded=0;orthogonalLoop=1;jettySize=auto;html=1;entryX=0;entryY=0.5;entryDx=0;entryDy=0;entryPerimeter=0;exitX=0.5;exitY=1;exitDx=0;exitDy=0;" edge="1" parent="WIyWlLk6GJQsqaUBKTNV-1" source="xgMs_YY9skJA7nOw364J-43" target="xgMs_YY9skJA7nOw364J-45">
          <mxGeometry relative="1" as="geometry">
            <mxPoint x="330" y="710" as="sourcePoint" />
            <mxPoint x="514" y="830" as="targetPoint" />
            <Array as="points">
              <mxPoint x="340" y="790" />
              <mxPoint x="340" y="830" />
            </Array>
          </mxGeometry>
        </mxCell>
        <mxCell id="xgMs_YY9skJA7nOw364J-43" value="회원가입 성공" style="whiteSpace=wrap;html=1;" vertex="1" parent="WIyWlLk6GJQsqaUBKTNV-1">
          <mxGeometry x="279" y="730" width="120" height="60" as="geometry" />
        </mxCell>
        <mxCell id="xgMs_YY9skJA7nOw364J-45" value="메인화면 이동" style="rounded=1;whiteSpace=wrap;html=1;" vertex="1" parent="WIyWlLk6GJQsqaUBKTNV-1">
          <mxGeometry x="520" y="800" width="120" height="60" as="geometry" />
        </mxCell>
        <mxCell id="xgMs_YY9skJA7nOw364J-52" value="아이디 또는 비밀번호가 일치하지 않습니다.&lt;br&gt;&lt;br&gt;등록되지 않은 아이디 입니다 등등" style="shape=document;whiteSpace=wrap;html=1;boundedLbl=1;" vertex="1" parent="WIyWlLk6GJQsqaUBKTNV-1">
          <mxGeometry x="970" y="260" width="170" height="130" as="geometry" />
        </mxCell>
        <mxCell id="xgMs_YY9skJA7nOw364J-55" value="" style="edgeStyle=orthogonalEdgeStyle;rounded=0;orthogonalLoop=1;jettySize=auto;html=1;" edge="1" parent="WIyWlLk6GJQsqaUBKTNV-1" source="xgMs_YY9skJA7nOw364J-53" target="xgMs_YY9skJA7nOw364J-43">
          <mxGeometry relative="1" as="geometry" />
        </mxCell>
        <mxCell id="xgMs_YY9skJA7nOw364J-57" value="" style="edgeStyle=orthogonalEdgeStyle;rounded=0;orthogonalLoop=1;jettySize=auto;html=1;entryX=-0.075;entryY=0.6;entryDx=0;entryDy=0;entryPerimeter=0;" edge="1" parent="WIyWlLk6GJQsqaUBKTNV-1" source="xgMs_YY9skJA7nOw364J-53">
          <mxGeometry relative="1" as="geometry">
            <mxPoint x="389" y="540" as="targetPoint" />
            <Array as="points">
              <mxPoint x="480" y="650" />
              <mxPoint x="480" y="540" />
            </Array>
          </mxGeometry>
        </mxCell>
        <mxCell id="xgMs_YY9skJA7nOw364J-53" value="유효성 체크" style="rhombus;whiteSpace=wrap;html=1;" vertex="1" parent="WIyWlLk6GJQsqaUBKTNV-1">
          <mxGeometry x="283.5" y="610" width="111" height="80" as="geometry" />
        </mxCell>
        <mxCell id="xgMs_YY9skJA7nOw364J-58" value="NO" style="text;html=1;align=center;verticalAlign=middle;resizable=0;points=[];autosize=1;strokeColor=none;fillColor=none;" vertex="1" parent="WIyWlLk6GJQsqaUBKTNV-1">
          <mxGeometry x="460" y="580" width="40" height="30" as="geometry" />
        </mxCell>
        <mxCell id="xgMs_YY9skJA7nOw364J-60" value="YES" style="text;html=1;align=center;verticalAlign=middle;resizable=0;points=[];autosize=1;strokeColor=none;fillColor=none;" vertex="1" parent="WIyWlLk6GJQsqaUBKTNV-1">
          <mxGeometry x="314" y="690" width="50" height="30" as="geometry" />
        </mxCell>
        <mxCell id="xgMs_YY9skJA7nOw364J-61" value="입력한 정보를 다시 한번 확인 해 주세요.&lt;br&gt;&lt;br&gt;비밀번호 입력과 재확인 입력의 결과가 일치하지 않습니다. 등등" style="shape=document;whiteSpace=wrap;html=1;boundedLbl=1;" vertex="1" parent="WIyWlLk6GJQsqaUBKTNV-1">
          <mxGeometry x="490" y="530" width="220" height="140" as="geometry" />
        </mxCell>
      </root>
    </mxGraphModel>
  </diagram>
</mxfile>
